<?xml version="1.0" encoding="UTF-8"?><svg id="Layer_1" xmlns="http://www.w3.org/2000/svg" viewBox="0 0 465 140"><defs><style>.cls-1{fill:#fff;}.cls-2{fill:#ed1c2e;}</style></defs><path class="cls-1" d="M181.6,61.9c-9.7,0-15.4-6.9-15.4-16.1s5.8-16.4,15.2-16.4,6.4,.4,9.8,2.4l.6-7.6c-3.3-1.3-7.3-1.9-10.3-1.9-15.4,0-24.9,8.7-24.9,24.2s10.2,22.6,24.9,22.6,7-.6,10.3-1.4l-.4-7.6c-2.2,1.1-6.4,1.9-9.9,1.9Z"/><path class="cls-1" d="M217.2,34.1c-4.5,0-8.3,2.1-10.5,5.3h-.1V19.7h-8.7v48.6h8.7v-16.3c0-4.3,1.4-11.1,7.7-11.1s5.7,5.5,5.7,9.6v17.8h8.7v-21.1c0-7.5-3.5-13.1-11.4-13.1Z"/><rect class="cls-1" x="236.5" y="20.5" width="8.7" height="8.3"/><rect class="cls-1" x="236.5" y="34.9" width="8.7" height="33.4"/><path class="cls-1" d="M275,60.8c-1.5,.6-4.2,1.6-6.7,1.6-6.1,0-9-4.7-9-10.9s3.4-10.6,8.9-10.6,4.3,.5,5.9,1.2l.8-6.9c-2.4-.7-4.9-1.1-8.4-1.1-10.5,0-16.2,7.6-16.2,17.3s5.5,17.6,16.5,17.6,6.2-.3,8.7-1.1l-.4-7.2Z"/><path class="cls-1" d="M309.3,60.8c0-2.5-.1-5-.1-8.4v-4.3c0-9.8-4.2-14-14.4-14s-8.3,1-11.6,2.5l.3,7.5c2.9-2.2,6.6-3.6,10.3-3.6s7.6,1.8,7.6,7.2h-4.8c-3.6,0-7.9,.3-11.2,1.9-3.3,1.6-5.7,4.5-5.7,9.5s5.8,9.9,11.7,9.9,8.3-2.1,10.3-5.8h.1c0,1.1,0,3.3,.4,5h7.7c-.2-2.6-.3-4.9-.4-7.5Zm-9.9-1.1c-1.4,1.8-3.4,3-6.1,3s-5.5-1.2-5.5-4.1c0-5.1,5.8-5.8,9.7-5.8h3.8c0,2.6-.4,5-1.8,6.9Z"/><path class="cls-1" d="M328.4,68.3c4.9,0,8.8-2.5,10.4-5.3h.1c0,5.8-.4,12.9-10.1,12.9s-7.1-1.5-9.7-2.9l-.7,7.4c4.1,1.7,8.1,2.3,11.6,2.3,14.1,0,17.7-8.6,17.7-17.6v-30.1h-8.3v4.5h-.1c-2.4-3.8-5.9-5.3-10.3-5.3-10,0-14.2,9.3-14.2,17.3s3.8,16.9,13.7,16.9Zm3.3-27.4c5.1,0,7.3,4.7,7.3,10.4s-2.2,10.3-7.7,10.3-7.4-5.6-7.4-10.1,1.9-10.6,7.8-10.6Z"/><path class="cls-1" d="M388.2,51.8c0-11-7.6-17.7-17.5-17.7s-17.5,6.7-17.5,17.7,6.4,17.2,17.5,17.2,17.5-7.7,17.5-17.2Zm-25.9-1c0-5,2.7-9.9,8.4-9.9s8.4,4.8,8.4,9.9-1.7,11.5-8.4,11.5-8.4-6-8.4-11.5Z"/><path class="cls-1" d="M171.6,77.3h-11.5v45.2h9.1v-17.2h3.8c9.8,0,17.5-3.8,17.5-14.4s-9-13.7-18.9-13.7Zm.8,20.9h-3.2v-13.8h3.2c4.7,0,8.7,1.8,8.7,7.1s-4.1,6.7-8.7,6.7Z"/><path class="cls-1" d="M214.6,88.4c-4.5,0-8.3,1.5-11,5.3h-.1v-4.5h-8.2v33.4h8.7v-16.3c0-4.3,1.4-11.1,7.7-11.1s5.7,5.5,5.7,9.6v17.8h8.7v-21.1c0-7.5-3.4-13.1-11.4-13.1Z"/><path class="cls-1" d="M247.4,88.4c-10.4,0-15.5,8-15.5,17.6s6.4,17.3,17.5,17.3,8.3-.9,11.5-2.6v-7.1c-3.2,1.8-6.9,3.4-11.1,3.4s-9.2-3-9.5-8.4h23.1c0-11.7-3.5-20.2-15.9-20.2Zm-7.2,14.2c.4-4.5,2.9-7.8,7.7-7.8s6.8,3.6,7.1,7.8h-14.8Z"/><path class="cls-1" d="M289.5,105.5c0,4.3-1.4,11.1-7.7,11.1s-5.6-5.5-5.6-9.6v-17.8h-8.7v21.1c0,7.5,3.5,13.1,11.4,13.1s8.3-2.1,11-5.3h.1v4.5h8.3v-33.4h-8.7v16.3Z"/><path class="cls-1" d="M345.7,88.4c-4.1,0-8.5,1.9-10.5,5.9-1.9-4.1-5.2-5.9-9.9-5.9s-7.2,1.4-10,5.4h-.1v-4.7h-8.1v33.4h8.7v-16.2c0-4.3,.7-11.2,6.5-11.2s5,4.4,5,7.5v19.9h8.7v-16.2c0-4.3,.7-11.2,6.5-11.2s5,4.4,5,7.5v19.9h8.7v-21.1c0-7.4-2.3-13.1-10.6-13.1Z"/><path class="cls-1" d="M393,106.7v-4.3c0-9.8-4.2-14.1-14.4-14.1s-8.2,1-11.6,2.5l.3,7.4c2.9-2.2,6.6-3.6,10.3-3.6s7.5,1.8,7.5,7.2h-4.8c-3.6,0-7.9,.3-11.2,1.9-3.3,1.6-5.7,4.5-5.7,9.5s5.8,9.9,11.7,9.9,8.3-2.1,10.3-5.7h.1c0,1,0,3.2,.4,5h7.7c-.2-2.6-.3-4.9-.4-7.4,0-2.5-.1-5-.1-8.4Zm-9.8,7.3c-1.4,1.8-3.4,3-6.1,3s-5.5-1.2-5.5-4.1c0-5.1,5.8-5.8,9.7-5.8h3.8c0,2.6-.4,5-1.8,6.9Z"/><path class="cls-1" d="M415.8,116.5c-3.3,0-4.1-2.7-4.1-5.5v-15.5h7.7v-6.4h-7.7v-9.5l-8.7,2.8v6.7h-6.4v6.4h6.4v17c0,6.6,3.8,10.8,10.6,10.8s4.6-.2,6.4-.8l-.3-6.9c-.9,.6-2.4,.9-4,.9Z"/><rect class="cls-1" x="425.2" y="89.1" width="8.7" height="33.4"/><rect class="cls-1" x="425.2" y="75.2" width="8.7" height="8.3"/><path class="cls-1" d="M464.6,115c-1.5,.7-4.2,1.6-6.7,1.6-6.1,0-9-4.7-9-10.9s3.4-10.6,8.8-10.6,4.3,.5,5.9,1.2l.8-6.9c-2.4-.7-4.9-1.1-8.5-1.1-10.5,0-16.2,7.6-16.2,17.3s5.5,17.6,16.5,17.6,6.2-.3,8.7-1.1l-.4-7.2Z"/><g><path class="cls-2" d="M43.9,34.6s-20,7.2-18.5,28c0,0-.8,23.4,27.3,27.8v-13.5s-13.9-2.3-13.6-17.6c0,0,1.3-13.1,17.5-13.9h10.8v-12.9s-14.1-2.3-23.5,2.1Z"/><path class="cls-2" d="M63.5,6.5C28.4,6.5,0,34.9,0,70s28.4,63.5,63.5,63.5,63.5-28.4,63.5-63.5S98.6,6.5,63.5,6.5Zm6.4,114v-53.2c18.2-1.3,17.3,11.1,17.3,11.1,.7,12.6-12.9,14-12.9,14v11.8c15.6-.3,22.6-10.5,22.6-10.5,10.1-19.3-3.7-32.5-3.7-32.5-14.2-12.9-37-5.3-37-5.3V120.4c-24.7-3.5-43.7-24.7-43.7-50.4S35.4,19.1,63.5,19.1s50.9,22.8,50.9,50.9-19.4,47.3-44.5,50.5Z"/></g></svg>